<svg width="553" height="83" viewBox="0 0 553 83" fill="none" xmlns="http://www.w3.org/2000/svg">
<g clip-path="url(#clip0_401_31)">
<g clip-path="url(#clip1_401_31)">
<path d="M-3 2C-3 -9.04569 5.95431 -18 17 -18H977C988.046 -18 997 -9.04569 997 2V82C997 93.0457 988.046 102 977 102H17C5.95429 102 -3 93.0457 -3 82V2Z" fill="#232323"/>
<circle cx="137" cy="28" r="8.5" stroke="#FFE425" stroke-opacity="0.8" stroke-width="3"/>
<line x1="206.032" y1="7.60948" x2="211.721" y2="18.1749" stroke="white" stroke-width="3" stroke-linecap="round"/>
<line x1="183.728" y1="34.7692" x2="195.562" y2="36.7571" stroke="white" stroke-width="3" stroke-linecap="round"/>
<line x1="184.1" y1="12.6987" x2="201.708" y2="25.888" stroke="white" stroke-width="3" stroke-linecap="round"/>
</g>
<path fill-rule="evenodd" clip-rule="evenodd" d="M79.0841 74.5369C54.6411 66.1988 29.2975 43.5595 3.50029 -1.0601L8.69401 -3.6684C34.2245 40.4899 58.6699 61.7178 81.1119 69.3734C103.389 76.9726 124.411 71.4273 143.844 60.311C162.117 49.8583 178.596 34.7034 192.926 21.5249C193.894 20.6352 194.852 19.7544 195.799 18.8847C203.227 12.0694 210.108 5.87909 216.241 1.53171C219.315 -0.64673 222.303 -2.43732 225.171 -3.61661C228.031 -4.79294 230.96 -5.439 233.829 -5.09048L233.066 0.36195C231.641 0.188806 229.839 0.473432 227.552 1.41396C225.273 2.35152 222.697 3.86393 219.813 5.90845C214.03 10.007 207.415 15.9424 199.938 22.803C198.964 23.6971 197.976 24.6061 196.974 25.5274C182.742 38.6201 165.807 54.1994 146.93 64.9973C126.652 76.5971 103.692 82.9315 79.0841 74.5369Z" fill="#FFE425" fill-opacity="0.5"/>
<path fill-rule="evenodd" clip-rule="evenodd" d="M242.573 4.58135C239.365 1.77993 236.058 0.336113 232.353 0.337482L232.351 -5.16108C237.937 -5.16314 242.619 -2.91332 246.607 0.569125C250.542 4.00602 253.92 8.74092 257.029 14.0076C260.036 19.1006 262.896 24.8785 265.796 30.7369C265.904 30.954 266.011 31.1713 266.119 31.3887C269.149 37.5076 272.244 43.7189 275.687 49.5531C282.621 61.3036 290.664 70.9712 301.623 75.111C312.39 79.1781 326.828 78.1999 347.362 66.7517L350.391 71.4705C328.992 83.4003 312.544 85.1691 299.407 80.2069C286.463 75.3174 277.585 64.1794 270.517 52.203C266.959 46.1736 263.782 39.7911 260.762 33.6928C260.668 33.5028 260.574 33.3131 260.481 33.1238C257.546 27.1965 254.764 21.5768 251.86 16.6582C248.855 11.5675 245.832 7.42831 242.573 4.58135Z" fill="#FFE425" fill-opacity="0.5"/>
<path fill-rule="evenodd" clip-rule="evenodd" d="M350.558 70.9867C350.303 71.1297 350.137 71.2228 350.063 71.2631L347.072 66.5243C347.143 66.4855 347.305 66.3946 347.555 66.2544C351.935 63.7999 383.257 46.2473 422.391 28.8558C443.073 19.6641 465.985 10.4953 488.297 3.61785C510.569 -3.2473 532.434 -7.89046 550.963 -7.89815L550.964 -2.3996C533.357 -2.39229 512.187 2.04525 490.149 8.83826C468.151 15.6189 445.48 24.6857 424.929 33.8189C386.075 51.0863 354.975 68.5117 350.558 70.9867Z" fill="#FFE425" fill-opacity="0.5"/>
<path d="M203.723 41.7578C203.723 36.5625 205.062 32.4473 207.742 29.4121C210.422 26.3496 213.881 24.8184 218.119 24.8184C220.854 24.8184 223.191 25.5703 225.133 27.0742C227.102 28.5781 228.564 30.4375 229.521 32.6523L224.887 34.1699C223.137 31.0254 220.854 29.4531 218.037 29.4531C215.357 29.4531 213.225 30.5742 211.639 32.8164C210.08 35.0312 209.301 38.0117 209.301 41.7578C209.301 45.5586 210.094 48.5664 211.68 50.7812C213.266 52.9961 215.385 54.1035 218.037 54.1035C219.76 54.1035 221.277 53.584 222.59 52.5449C223.93 51.5059 224.9 50.2344 225.502 48.7305L230.342 50.248C229.932 51.2324 229.398 52.1895 228.742 53.1191C228.113 54.0215 227.307 54.9238 226.322 55.8262C225.365 56.7012 224.176 57.4121 222.754 57.959C221.332 58.4785 219.787 58.7383 218.119 58.7383C213.963 58.7383 210.518 57.2344 207.783 54.2266C205.076 51.1914 203.723 47.0352 203.723 41.7578ZM233.58 38.7637V34.334H253.145V38.7637H245.967V58H240.758V38.7637H233.58ZM262.126 51.3555C262.126 52.2305 262.467 52.9688 263.151 53.5703C263.862 54.1445 264.792 54.4316 265.94 54.4316C267.581 54.4316 268.975 53.8848 270.124 52.791C271.299 51.6973 271.887 50.2617 271.887 48.4844V46.3105C270.63 46.6113 269.112 46.8984 267.335 47.1719C263.862 47.7188 262.126 49.1133 262.126 51.3555ZM256.876 51.8066C256.876 47.3496 260.184 44.6289 266.801 43.6445C269.208 43.2891 270.903 42.9609 271.887 42.6602V41.3887C271.887 40.2402 271.477 39.3379 270.657 38.6816C269.837 38.0254 268.743 37.6973 267.376 37.6973C264.778 37.6973 262.536 38.7637 260.649 40.8965L257.491 38.1895C258.721 36.7402 260.184 35.6191 261.88 34.8262C263.602 34.0059 265.407 33.5957 267.294 33.5957C270.821 33.5957 273.337 34.457 274.84 36.1797C276.344 37.875 277.096 40.2539 277.096 43.3164V58H272.051V55.0469C271.559 56.0586 270.698 56.9336 269.467 57.6719C268.264 58.3828 266.842 58.7383 265.202 58.7383C262.604 58.7383 260.567 58.0957 259.09 56.8105C257.614 55.5254 256.876 53.8574 256.876 51.8066ZM281.935 38.7637V34.334H301.499V38.7637H294.321V58H289.112V38.7637H281.935ZM306.624 58V34.334H311.874V43.5215H316.14C321.909 43.5215 324.794 45.9688 324.794 50.8633C324.794 52.9414 324.083 54.6504 322.661 55.9902C321.24 57.3301 319.216 58 316.591 58H306.624ZM311.874 53.7754H316.181C318.368 53.7754 319.462 52.791 319.462 50.8223C319.462 48.7715 318.341 47.7461 316.099 47.7461H311.874V53.7754ZM330.74 58V34.334H335.949V44.5879C335.949 46.0918 335.839 48.0879 335.621 50.5762H335.744L338.205 46.3516L345.464 34.334H350.55V58H345.382V48.4434C345.382 46.2012 345.519 44.0957 345.793 42.127H345.711L343.66 45.7363L335.867 58H330.74Z" fill="white"/>
</g>
<defs>
<clipPath id="clip0_401_31">
<path d="M0 20C0 8.95431 8.95431 0 20 0H533C544.046 0 553 8.95431 553 20V63C553 74.0457 544.046 83 533 83H20C8.95431 83 0 74.0457 0 63V20Z" fill="white"/>
</clipPath>
<clipPath id="clip1_401_31">
<rect width="558" height="83" fill="white" transform="translate(-3)"/>
</clipPath>
</defs>
</svg>
