<svg width="226" height="226" viewBox="0 0 226 226" fill="none" xmlns="http://www.w3.org/2000/svg">
<path d="M206.233 128.225L218.121 131.622L216.937 135.628C216.662 136.559 216.269 137.271 215.758 137.765C215.249 138.264 214.669 138.576 214.015 138.699C213.362 138.822 212.685 138.783 211.985 138.583C211.284 138.383 210.69 138.058 210.202 137.609C209.712 137.163 209.384 136.597 209.218 135.909C209.056 135.222 209.111 134.418 209.384 133.495L210.233 130.624L211.51 130.988L210.675 133.814C210.487 134.451 210.446 134.994 210.552 135.443C210.659 135.892 210.874 136.257 211.198 136.537C211.525 136.823 211.926 137.034 212.402 137.17C212.878 137.306 213.33 137.339 213.758 137.269C214.185 137.203 214.562 137.005 214.89 136.676C215.222 136.348 215.483 135.862 215.673 135.217L216.419 132.693L205.809 129.661L206.233 128.225Z" fill="white"/>
<path d="M202.892 141.844L214.158 146.938L210.998 153.697L209.788 153.15L212.314 147.747L208.507 146.025L206.145 151.079L204.934 150.531L207.297 145.478L203.468 143.747L200.901 149.238L199.691 148.691L202.892 141.844Z" fill="white"/>
<path d="M193.435 160.978L200.562 160.521L201.406 159.256L196.639 156.178L197.47 154.933L207.857 161.638L207.026 162.884L202.522 159.976L202.16 160.519L203.916 167.543L202.924 169.03L201.134 161.925L192.443 162.465L193.435 160.978Z" fill="white"/>
<path d="M190.923 166.802L191.927 167.745L191.674 168.005C191.315 168.374 191.157 168.774 191.198 169.205C191.24 169.636 191.485 170.149 191.935 170.742C192.382 171.339 193.034 172.069 193.889 172.933L198.085 177.172L192.836 182.577L183.824 174.113L184.867 173.039L192.911 180.594L196.124 177.285L192.668 173.774C191.757 172.852 191.036 172.012 190.505 171.254C189.974 170.495 189.699 169.782 189.681 169.113C189.662 168.445 189.97 167.784 190.604 167.132L190.923 166.802Z" fill="white"/>
<path d="M178.717 180.383L179.979 179.45L183.833 191.973L182.59 192.891L171.434 185.764L172.696 184.831L181.986 190.906L182.063 190.849L178.717 180.383ZM181.183 184.565L176.094 188.325L175.288 187.269L180.376 183.51L181.183 184.565Z" fill="white"/>
<path d="M172.244 202.104L170.609 202.824L162.508 195.18L162.375 195.239L162.787 206.272L161.151 206.993L156.024 195.742L157.306 195.177L161.201 203.725L161.312 203.676L160.952 193.57L162.189 193.025L169.62 200.014L169.731 199.966L165.835 191.418L167.117 190.853L172.244 202.104Z" fill="white"/>
<path d="M148.193 199.977L149.716 199.595L148.416 212.667L146.917 213.043L139.41 202.18L140.932 201.798L147.128 210.974L147.222 210.95L148.193 199.977ZM148.843 204.793L142.707 206.332L142.373 205.046L148.51 203.507L148.843 204.793Z" fill="white"/>
<path d="M116.782 214.261L118.28 214.272C118.365 214.704 118.517 215.083 118.735 215.411C118.95 215.739 119.213 216.014 119.526 216.238C119.834 216.466 120.176 216.638 120.554 216.753C120.931 216.869 121.325 216.928 121.736 216.931C122.484 216.937 123.164 216.753 123.775 216.38C124.381 216.006 124.867 215.452 125.231 214.719C125.591 213.985 125.775 213.083 125.784 212.012C125.792 210.942 125.622 210.037 125.274 209.298C124.922 208.558 124.445 207.997 123.845 207.614C123.24 207.231 122.563 207.037 121.815 207.031C121.404 207.028 121.009 207.081 120.63 207.191C120.251 207.301 119.906 207.465 119.594 207.684C119.278 207.907 119.01 208.181 118.79 208.505C118.566 208.833 118.409 209.21 118.317 209.636L116.819 209.625C116.937 208.994 117.147 208.43 117.449 207.933C117.751 207.436 118.124 207.015 118.57 206.668C119.015 206.325 119.514 206.066 120.067 205.889C120.616 205.712 121.202 205.626 121.826 205.631C122.88 205.639 123.816 205.904 124.633 206.425C125.45 206.946 126.09 207.684 126.553 208.637C127.016 209.591 127.243 210.719 127.232 212.023C127.222 213.327 126.978 214.452 126.499 215.398C126.021 216.345 125.369 217.072 124.544 217.581C123.719 218.09 122.779 218.34 121.725 218.332C121.101 218.327 120.516 218.232 119.97 218.047C119.42 217.861 118.925 217.592 118.485 217.238C118.045 216.889 117.678 216.463 117.385 215.962C117.091 215.465 116.89 214.898 116.782 214.261Z" fill="white"/>
<path d="M109.379 206.48L110.924 206.757L104.206 218.114L102.685 217.842L100.465 204.885L102.01 205.162L103.754 216.046L103.849 216.063L109.379 206.48ZM107.93 211.127L101.702 210.013L101.944 208.707L108.172 209.821L107.93 211.127Z" fill="white"/>
<path d="M89.6578 216.352L88.2787 215.834L91.7993 206.762L91.6862 206.719L81.8355 213.416L80.479 212.907L84.9517 201.381L86.3534 201.907L82.8416 210.957L82.9547 210.999L92.7741 204.316L94.1306 204.825L89.6578 216.352ZM82.8424 217.095L81.599 216.628C81.8348 216.021 82.2388 215.603 82.8107 215.375C83.3827 215.146 84.0304 215.168 84.7539 215.44C85.4661 215.707 85.9582 216.113 86.2302 216.658C86.4985 217.201 86.5147 217.777 86.2788 218.385L85.0354 217.918C85.149 217.625 85.1677 217.338 85.0916 217.056C85.0117 216.772 84.7739 216.556 84.3783 216.408C83.9826 216.259 83.6571 216.264 83.4016 216.422C83.1424 216.578 82.956 216.802 82.8424 217.095Z" fill="white"/>
<path d="M73.2603 209.493L72.5935 210.641L64.5079 206.102L65.1747 204.953L68.5647 206.857L74.1049 197.313L75.4104 198.046L69.8702 207.59L73.2603 209.493Z" fill="white"/>
<path d="M58.9435 198.202L56.2931 195.878C55.6275 195.294 55.1636 194.694 54.9014 194.079C54.6362 193.461 54.5628 192.853 54.681 192.255C54.7962 191.655 55.0944 191.09 55.5757 190.559C56.057 190.028 56.601 189.665 57.2077 189.469C57.8114 189.271 58.4473 189.259 59.1154 189.433C59.7805 189.604 60.4458 189.981 61.1114 190.565L64.5968 193.623L56.2905 202.781L55.165 201.793L62.5953 193.601L60.2354 191.531C59.8118 191.16 59.3776 190.929 58.9327 190.838C58.482 190.748 58.0608 190.769 57.6689 190.902C57.2712 191.035 56.9372 191.25 56.6668 191.548C56.2693 191.986 56.0982 192.514 56.1535 193.129C56.2061 193.748 56.55 194.336 57.1854 194.894L59.8358 197.219L58.9435 198.202ZM47.686 195.232L55.9922 186.075L57.1177 187.062L48.8115 196.22L47.686 195.232Z" fill="white"/>
<path d="M32.0796 173.639L32.9289 174.872C32.6208 175.183 32.3938 175.521 32.2481 175.884C32.1001 176.244 32.023 176.614 32.0169 176.995C32.0051 177.375 32.0597 177.753 32.1805 178.127C32.3013 178.501 32.4782 178.857 32.7111 179.195C33.1357 179.811 33.6778 180.265 34.3374 180.556C34.9947 180.843 35.7315 180.93 36.5476 180.817C37.3614 180.7 38.2138 180.345 39.1048 179.751C39.9957 179.158 40.6472 178.511 41.0592 177.811C41.4689 177.107 41.66 176.402 41.6324 175.695C41.6025 174.985 41.3752 174.322 40.9505 173.705C40.7176 173.367 40.447 173.074 40.1386 172.825C39.8302 172.576 39.496 172.385 39.136 172.252C38.7704 172.119 38.3902 172.053 37.9956 172.055C37.5954 172.055 37.1927 172.138 36.7874 172.301L35.9381 171.068C36.5279 170.811 37.1149 170.666 37.6992 170.635C38.2835 170.603 38.8469 170.673 39.3894 170.843C39.9286 171.016 40.4299 171.279 40.8934 171.633C41.3547 171.983 41.7622 172.415 42.1161 172.929C42.7143 173.797 43.0319 174.712 43.0689 175.674C43.106 176.636 42.8628 177.574 42.3395 178.488C41.8162 179.403 41.0119 180.221 39.9267 180.944C38.8415 181.667 37.7701 182.098 36.7125 182.237C35.655 182.376 34.6789 182.25 33.7845 181.86C32.89 181.469 32.1437 180.84 31.5455 179.971C31.1916 179.458 30.9348 178.925 30.775 178.374C30.6129 177.819 30.552 177.263 30.5923 176.704C30.6292 176.148 30.7708 175.608 31.0172 175.086C31.2602 174.567 31.6144 174.084 32.0796 173.639Z" fill="white"/>
<path d="M24.4036 156.758C25.5995 156.238 26.7295 156.003 27.7936 156.054C28.8577 156.105 29.7943 156.402 30.6033 156.946C31.4124 157.489 32.0331 158.242 32.4654 159.203C32.8977 160.165 33.0459 161.123 32.9101 162.077C32.7743 163.032 32.3674 163.913 31.6894 164.721C31.0114 165.529 30.0745 166.193 28.8786 166.713C27.6827 167.233 26.5528 167.468 25.4886 167.417C24.4245 167.366 23.4879 167.069 22.6789 166.525C21.8698 165.982 21.2492 165.229 20.8168 164.268C20.3845 163.306 20.2363 162.348 20.3721 161.394C20.5079 160.439 20.9148 159.558 21.5928 158.75C22.2708 157.942 23.2078 157.278 24.4036 156.758ZM24.9976 158.079C24.0159 158.506 23.2607 159.03 22.7321 159.65C22.2019 160.267 21.8879 160.928 21.7901 161.633C21.6906 162.334 21.7944 163.026 22.1013 163.709C22.4082 164.392 22.8597 164.935 23.4558 165.338C24.0503 165.738 24.7586 165.955 25.5809 165.988C26.4016 166.017 27.3028 165.818 28.2846 165.392C29.2664 164.965 30.0224 164.443 30.5526 163.826C31.0812 163.206 31.3952 162.545 31.4946 161.844C31.5924 161.139 31.4879 160.445 31.1809 159.762C30.874 159.079 30.4233 158.538 29.8289 158.138C29.2328 157.735 28.5244 157.518 27.7038 157.489C26.8815 157.456 25.9794 157.653 24.9976 158.079Z" fill="white"/>
<path d="M12.2567 142.778L24.2829 139.909L24.6414 141.363L13.9071 143.923L15.3989 149.972L26.1333 147.412L26.4918 148.865L14.4655 151.734L12.2567 142.778Z" fill="white"/>
<path d="M21.9026 133.198L9.58841 134.304L9.20241 130.144C9.11278 129.178 9.2139 128.373 9.50574 127.729C9.7932 127.081 10.2178 126.582 10.7795 126.232C11.3413 125.883 11.9849 125.676 12.7104 125.611C13.436 125.545 14.1091 125.634 14.7299 125.878C15.3503 126.117 15.8654 126.527 16.275 127.109C16.6806 127.691 16.9279 128.461 17.0168 129.418L17.2934 132.4L15.9706 132.519L15.6984 129.585C15.6371 128.924 15.4736 128.403 15.2079 128.023C14.9422 127.643 14.6066 127.38 14.201 127.234C13.7911 127.085 13.3396 127.033 12.8466 127.077C12.3535 127.121 11.9211 127.253 11.5494 127.472C11.1773 127.688 10.8998 128.008 10.7169 128.432C10.53 128.857 10.4676 129.404 10.5297 130.073L10.7729 132.694L21.7642 131.708L21.9026 133.198Z" fill="white"/>
<path d="M14.3239 107.658C15.6231 107.769 16.725 108.101 17.6296 108.651C18.5342 109.201 19.2068 109.907 19.6473 110.769C20.0879 111.631 20.2614 112.587 20.168 113.638C20.0747 114.688 19.735 115.6 19.149 116.374C18.563 117.147 17.776 117.728 16.788 118.116C15.8 118.503 14.6564 118.641 13.3572 118.53C12.058 118.418 10.9561 118.087 10.0515 117.536C9.1469 116.986 8.47432 116.28 8.03378 115.418C7.59324 114.556 7.41966 113.6 7.51305 112.55C7.60643 111.499 7.94611 110.587 8.53209 109.814C9.11806 109.04 9.90505 108.459 10.8931 108.072C11.8811 107.684 13.0247 107.546 14.3239 107.658ZM14.1956 109.101C13.129 109.009 12.2129 109.11 11.4474 109.404C10.6822 109.693 10.0842 110.125 9.6535 110.698C9.22311 111.267 8.97476 111.924 8.90846 112.67C8.84217 113.415 8.97057 114.107 9.29367 114.745C9.61712 115.378 10.1299 115.905 10.832 116.325C11.5344 116.741 12.4189 116.995 13.4855 117.086C14.5521 117.178 15.468 117.079 16.2332 116.789C16.9987 116.496 17.5967 116.065 18.0271 115.496C18.4578 114.923 18.7063 114.263 18.7726 113.518C18.8389 112.772 18.7103 112.082 18.3869 111.449C18.0638 110.811 17.551 110.284 16.8486 109.868C16.1465 109.448 15.2622 109.193 14.1956 109.101Z" fill="white"/>
<path d="M20.1846 102.062L8.19081 99.0605L9.2736 94.8758C9.48935 94.042 9.81175 93.3905 10.2408 92.9212C10.6659 92.4509 11.1549 92.1439 11.7075 92.0001C12.2563 91.8553 12.8235 91.8562 13.4092 92.0028C13.9245 92.1318 14.3264 92.3298 14.6148 92.597C14.9041 92.8602 15.1081 93.1643 15.2267 93.5093C15.3463 93.8504 15.4086 94.2041 15.4136 94.5704L15.5307 94.5997C15.6489 94.2393 15.873 93.9034 16.2031 93.5918C16.5331 93.2803 16.949 93.0546 17.4508 92.9147C17.9526 92.7747 18.5197 92.7839 19.1522 92.9422C19.7535 93.0926 20.2589 93.3643 20.6686 93.7573C21.0782 94.1502 21.3475 94.676 21.4763 95.3347C21.6052 95.9933 21.5477 96.7941 21.3037 97.737L20.1846 102.062ZM19.2712 100.29L20.0153 97.4146C20.2603 96.4678 20.2507 95.7498 19.9865 95.2605C19.7195 94.7664 19.3224 94.4534 18.7953 94.3215C18.3893 94.2199 17.9878 94.2293 17.5908 94.3498C17.1898 94.4694 16.8365 94.6942 16.5308 95.0242C16.2212 95.3533 15.9988 95.7789 15.8637 96.301L15.1015 99.2466L19.2712 100.29ZM13.8366 98.93L14.5322 96.2416C14.6451 95.8052 14.6611 95.3902 14.58 94.9965C14.5 94.599 14.3305 94.2579 14.0716 93.9732C13.8137 93.6846 13.4739 93.4876 13.0523 93.3821C12.5252 93.2502 12.0308 93.3214 11.569 93.5958C11.1033 93.8693 10.7677 94.4034 10.562 95.1983L9.85425 97.9335L13.8366 98.93Z" fill="white"/>
<path d="M21.8578 74.7588C23.0479 75.2917 23.9775 75.9659 24.6465 76.7814C25.3155 77.5968 25.7126 78.4824 25.8379 79.4379C25.9631 80.3935 25.8042 81.3497 25.3611 82.3066C24.9181 83.2635 24.289 84.0091 23.4739 84.5436C22.6588 85.0782 21.7189 85.365 20.6542 85.4041C19.5895 85.4432 18.462 85.1963 17.2719 84.6634C16.0818 84.1305 15.1523 83.4563 14.4832 82.6408C13.8142 81.8254 13.4171 80.9398 13.2919 79.9843C13.1667 79.0287 13.3256 78.0725 13.7686 77.1156C14.2116 76.1587 14.8407 75.4131 15.6558 74.8785C16.4709 74.344 17.4108 74.0572 18.4756 74.0181C19.5403 73.979 20.6677 74.2259 21.8578 74.7588ZM21.249 76.0735C20.272 75.636 19.3721 75.4293 18.5494 75.4533C17.7284 75.4737 17.0176 75.6824 16.417 76.0792C15.8181 76.4724 15.3614 77.0087 15.0469 77.688C14.7323 78.3673 14.6201 79.06 14.71 79.7661C14.8016 80.4685 15.1083 81.1328 15.63 81.7588C16.1534 82.3812 16.9036 82.9111 17.8807 83.3487C18.8577 83.7862 19.7568 83.9947 20.5778 83.9743C21.4005 83.9503 22.1113 83.7417 22.7102 83.3485C23.3108 82.9516 23.7684 82.4135 24.0829 81.7342C24.3974 81.0549 24.5088 80.364 24.4172 79.6616C24.3272 78.9555 24.0206 78.2913 23.4972 77.6689C22.9755 77.0428 22.2261 76.5111 21.249 76.0735Z" fill="white"/>
<path d="M23.5031 57.0035L33.3251 64.5126L32.3967 65.6872L22.5747 58.178L23.5031 57.0035ZM28.1438 71.0672L25.5076 64.0066L18.5314 63.2928L19.6545 61.872L26.0009 62.6818L28.8012 59.1393L26.4382 53.2905L27.5613 51.8697L29.9893 58.376L37.578 59.1326L36.5148 60.4776L30.0786 59.7815L26.9338 63.7597L29.192 69.7411L28.1438 71.0672Z" fill="white"/>
<path d="M42.5531 55.7039L39.6375 52.5129L40.2346 51.9852C40.2714 51.6198 40.2269 51.1893 40.1011 50.6936C39.9756 50.1923 39.7182 49.6035 39.3291 48.927C38.9403 48.2449 38.3679 47.4485 37.612 46.5376L34.2928 42.5111L39.7937 37.6501L47.2374 45.7971L48.305 44.8537L51.2044 48.0269L50.1368 48.9703L48.1333 46.7776L41.601 52.55L43.6207 54.7605L42.5531 55.7039ZM41.5737 50.802L46.1698 46.7405L39.6219 39.574L36.2019 42.5961L38.6796 45.5942C39.2515 46.2917 39.7393 46.9509 40.1429 47.5716C40.5438 48.1893 40.8634 48.7688 41.1017 49.31C41.3373 49.8482 41.4946 50.3456 41.5737 50.802Z" fill="white"/>
<path d="M53.4973 41.1528L46.6628 30.8499L52.943 26.8207L53.6772 27.9275L48.6571 31.1482L50.9664 34.6295L55.6614 31.6173L56.3955 32.7241L51.7006 35.7362L54.0232 39.2376L59.1247 35.9647L59.8589 37.0714L53.4973 41.1528Z" fill="white"/>
<path d="M65.1567 32.4764L60.3321 21.093L61.7174 20.5251L63.8658 25.5943L69.9656 23.0941L67.8172 18.0249L69.2025 17.457L74.0271 28.8405L72.6418 29.4083L70.4839 24.3169L64.3841 26.8172L66.542 31.9086L65.1567 32.4764Z" fill="white"/>
<path d="M77.6268 13.0709L79.0682 12.7673L81.1392 22.2759L81.2573 22.251L85.8025 11.3488L87.2203 11.0501L89.8514 23.1305L88.3864 23.4391L86.3205 13.9541L86.2024 13.979L81.6757 24.8527L80.2579 25.1513L77.6268 13.0709Z" fill="white"/>
<path d="M96.5385 20.9839L95.8482 8.63958L103.299 8.2366L103.373 9.56266L97.4173 9.88477L97.6506 14.0558L103.221 13.7546L103.295 15.0806L97.7247 15.3819L97.9593 19.577L104.012 19.2497L104.086 20.5757L96.5385 20.9839Z" fill="white"/>
<path d="M124.57 20.7035L121.369 14.399L119.869 14.1426L118.881 19.7306L117.406 19.4782L119.558 7.30344L121.034 7.55582L120.101 12.8347L120.743 12.9446L126.556 8.5002L128.318 8.80142L122.445 13.309L126.331 21.0047L124.57 20.7035Z" fill="white"/>
<path d="M144.566 18.8392C144.099 20.0567 143.475 21.0269 142.693 21.7499C141.911 22.4729 141.043 22.9321 140.089 23.1275C139.135 23.3229 138.163 23.2372 137.175 22.8704C136.186 22.5036 135.399 21.9369 134.814 21.1703C134.229 20.4037 133.885 19.4952 133.784 18.4446C133.683 17.394 133.866 16.26 134.333 15.0425C134.8 13.825 135.424 12.8548 136.206 12.1318C136.988 11.4088 137.856 10.9496 138.81 10.7542C139.764 10.5589 140.736 10.6446 141.724 11.0114C142.713 11.3782 143.5 11.9448 144.085 12.7114C144.67 13.478 145.013 14.3866 145.115 15.4372C145.216 16.4877 145.033 17.6218 144.566 18.8392ZM143.208 18.3352C143.591 17.3357 143.747 16.4298 143.675 15.6176C143.606 14.8068 143.355 14.119 142.921 13.5544C142.49 12.9912 141.924 12.5794 141.222 12.319C140.521 12.0586 139.817 11.9993 139.112 12.1411C138.41 12.2844 137.76 12.6375 137.16 13.2005C136.564 13.765 136.075 14.547 135.691 15.5465C135.308 16.546 135.15 17.4512 135.218 18.262C135.29 19.0743 135.542 19.762 135.972 20.3252C136.406 20.8898 136.975 21.3023 137.676 21.5627C138.378 21.8231 139.08 21.8817 139.781 21.7385C140.487 21.5967 141.137 21.2435 141.733 20.6791C142.333 20.116 142.824 19.3348 143.208 18.3352Z" fill="white"/>
<path d="M163.379 20.1109L156.893 30.6372L155.607 29.8708L161.396 20.4753L156.044 17.2863L150.255 26.6818L148.969 25.9155L155.454 15.3892L163.379 20.1109Z" fill="white"/>
<path d="M172.237 24.3918L173.348 25.3591L166.836 32.5912L166.927 32.6705L178.538 29.8787L179.631 30.8302L171.358 40.0182L170.229 39.035L176.724 31.821L176.633 31.7417L165.057 34.5314L163.964 33.5799L172.237 24.3918Z" fill="white"/>
<path d="M176.79 43.7207L186.334 35.8614L189.043 39.0422C189.671 39.7807 190.05 40.4957 190.179 41.1871C190.314 41.8791 190.249 42.5264 189.986 43.1293C189.722 43.7321 189.309 44.2651 188.747 44.7281C188.184 45.1912 187.577 45.4987 186.924 45.6505C186.274 45.8055 185.612 45.7611 184.94 45.5174C184.27 45.2711 183.624 44.7818 183 44.0494L181.059 41.7695L182.084 40.9253L183.994 43.1684C184.424 43.674 184.859 44.0071 185.297 44.1677C185.735 44.3283 186.163 44.3535 186.582 44.2432C187.006 44.1335 187.41 43.9213 187.792 43.6066C188.174 43.2919 188.456 42.94 188.637 42.5509C188.821 42.1648 188.867 41.7467 188.774 41.2965C188.684 40.8437 188.422 40.3615 187.986 39.8497L186.28 37.8456L177.761 44.8607L176.79 43.7207Z" fill="white"/>
<path d="M187.32 54.8451L186.517 53.4966L199.553 51.2258L200.344 52.5536L191.953 62.6252L191.15 61.2766L198.278 52.9075L198.229 52.8245L187.32 54.8451ZM191.801 52.9324L195.039 58.3681L193.888 59.031L190.65 53.5954L191.801 52.9324Z" fill="white"/>
<path d="M207.511 62.919L208.028 64.2981L198.88 67.6172L198.923 67.7302L210.446 70.7417L210.955 72.0983L199.332 76.3151L198.806 74.9133L207.932 71.6024L207.889 71.4894L196.398 68.4923L195.889 67.1358L207.511 62.919ZM212.554 67.5623L213.021 68.8058C212.408 69.0281 211.827 68.999 211.279 68.7183C210.731 68.4377 210.321 67.9356 210.05 67.2121C209.783 66.4999 209.765 65.8621 209.996 65.2987C210.229 64.739 210.652 64.348 211.265 64.1257L211.731 65.3692C211.436 65.4762 211.207 65.6513 211.045 65.8943C210.884 66.1411 210.878 66.4623 211.026 66.858C211.175 67.2536 211.392 67.4957 211.679 67.5843C211.967 67.6767 212.259 67.6693 212.554 67.5623Z" fill="white"/>
<path d="M213.03 79.4398L214.331 79.1748L216.242 88.2485L214.94 88.5136L214.139 84.7092L203.326 86.9113L203.017 85.4462L213.831 83.2442L213.03 79.4398Z" fill="white"/>
</svg>
