<svg xmlns="http://www.w3.org/2000/svg" xmlns:xlink="http://www.w3.org/1999/xlink" width="50" height="50" viewBox="0 0 50 50">
  <defs>
    <rect id="rect-1" width="50" height="50" x="0" y="0"/>
    <mask id="mask-2" maskContentUnits="userSpaceOnUse" maskUnits="userSpaceOnUse">
      <rect width="50" height="50" x="0" y="0" fill="black"/>
      <use fill="white" xlink:href="#rect-1"/>
    </mask>
  </defs>
  <g>
    <use fill="none" xlink:href="#rect-1"/>
    <g mask="url(#mask-2)">
      <path fill="rgb(111,199,111)" fill-rule="evenodd" d="M37.22821045 47.5c.38043213.21728516.7609253.32592773 1.19567871.32592773.48913574 0 .92388916-.16308593 1.30432129-.43481445.7609253-.54345703 1.0869751-1.46728515.81524658-2.33691406l-3.85870361-13.58691406 11.46740722-9.67382813c.65216065-.59790039.92388916-1.52172851.65216065-2.33691406-.27172852-.8696289-1.03259277-1.4675293-1.90216065-1.52172852l-13.75-.97827148-6.1956787-13.53271485c-.32604981-.76098632-1.08691407-1.25-1.95648194-1.25s-1.63043213.48901368-1.95654297 1.25l-6.19567871 13.53271485-13.75.97827148c-.86956787.10864258-1.63043213.65209961-1.90216064 1.52172852-.27172852.86938476 0 1.79345703.65216064 2.33691406l11.52178955 9.72827149-3.85870361 13.58691406c-.21740723.8696289.10870361 1.79345703.81518554 2.33691406.70654297.48925781 1.68481446.54345703 2.44567872.05444336L25 39.51074219 37.22821045 47.5zM26.1956787 35.10864258c-.38043213-.21728516-.7609253-.32617188-1.19567871-.32617188-.43475342 0-.81524658.10888672-1.19567871.38061524l-8.58691406 5.54345703L17.88043213 31.25c.21740723-.81518555-.05432129-1.68481445-.70654297-2.22827148L8.75 21.9020996l9.67388916-.70654297c.81524658-.05419922 1.52178955-.54345703 1.84783936-1.25L25 9.56518554l4.72827148 10.3803711c.38043213.70654297 1.03259278 1.19580078 1.84783936 1.25L41.25 21.95654297l-8.42388916 7.1196289c-.65222168.54345704-.9239502 1.4128418-.70654297 2.22802735l2.6630249 9.40234375-8.58691406-5.5979004z"/>
      <path fill="none" stroke="rgb(111,199,111)" stroke-linecap="round" stroke-linejoin="round" stroke-width="4" d="M26 30v-7l-3 2.1"/>
    </g>
  </g>
</svg>
